<svg width="32" height="32" viewBox="0 0 32 32" fill="none" xmlns="http://www.w3.org/2000/svg">
  <path d="M31.2627 29.2806C30.0363 30.2334 25.7574 33.0054 21.8988 29.4538C17.2961 34.2182 12.5004 31.0131 11.2808 30.0602L18.1849 26.0148C19.2116 26.9244 21.7748 28.5876 24.7445 25.9802L31.2627 29.2806ZM9.43422 7.26071C10.4264 6.19524 11.7356 5.55422 13.1619 5.55422C15.6975 5.55422 17.8404 7.58122 18.5777 10.3792H20.9066C21.637 7.58122 23.7867 5.55422 26.3224 5.55422C29.4644 5.55422 32 8.67269 32 12.4928C32 16.3216 29.4644 19.4401 26.3224 19.4401C26.157 19.4401 25.9916 19.4314 25.8332 19.4141C26.2948 21.034 26.6187 22.7924 26.6669 24.6289L24.4758 23.5114L24.083 23.9012C21.2649 26.7252 18.8946 23.9619 18.8946 23.9619L18.4674 23.4594L15.4426 25.2266C15.2428 22.7231 15.8629 20.3236 16.5657 18.0541C15.6148 18.9203 14.4435 19.4401 13.1619 19.4401C10.0199 19.4401 7.48426 16.3216 7.48426 12.4928C7.48426 12.129 7.50493 11.7738 7.54627 11.4273L1.51863 17.4131L1.90862 21.6317L0.482322 21.8396L0 16.6248L9.43422 7.26071ZM26.3224 17.6383C28.6582 17.6383 30.5668 15.3427 30.5668 12.4928C30.5668 9.65154 28.6582 7.356 26.3224 7.356C24.2622 7.356 22.5327 9.14046 22.1537 11.5053C22.953 12.718 24.2002 14.823 25.1786 17.4477C25.5438 17.569 25.9227 17.6383 26.3224 17.6383ZM8.91745 12.4928C8.91745 15.3427 10.8261 17.6383 13.1619 17.6383C15.4977 17.6383 17.4063 15.3427 17.4063 12.4928C17.4063 9.65154 15.4977 7.356 13.1619 7.356C12.211 7.356 11.3291 7.73715 10.6194 8.37817L10.33 8.66403C9.46178 9.60823 8.91745 10.9682 8.91745 12.4928ZM31.435 1.88135C31.435 1.88135 26.4326 -2.34591 21.3614 1.87269L22.953 4.88721C26.412 2.00263 29.8295 4.87855 29.8295 4.87855L31.435 1.88135ZM9.68916 4.87855C9.68916 4.87855 13.1068 2.00263 16.5726 4.88721L18.1574 1.87269C13.093 -2.34591 8.09061 1.88135 8.09061 1.88135L9.68916 4.87855Z" fill="white"/>
</svg>